<?xml version="1.0" encoding="utf-8"?>
<!-- Generator: Adobe Illustrator 24.2.3, SVG Export Plug-In . SVG Version: 6.00 Build 0)  -->
<svg version="1.1" id="レイヤー_1" xmlns="http://www.w3.org/2000/svg" xmlns:xlink="http://www.w3.org/1999/xlink" x="0px"
	 y="0px" viewBox="0 0 310 70" style="enable-background:new 0 0 310 70;" xml:space="preserve">
<style type="text/css">
	.st0{fill:#C9B442;}
	.st1{fill:#267F9C;}
	.st2{fill:#FFFFFF;}
	.st3{fill:url(#SVGID_1_);}
	.st4{fill:url(#SVGID_2_);}
	.st5{fill:url(#SVGID_3_);}
	.st6{fill:url(#SVGID_4_);}
</style>
<g>
	<g>
		<g>
			<path class="st0" d="M29.2,54.8c-2.3-2.2-1.2-5.9-2.6-7.3c-0.6-0.4-2,0.3-2.1,1.3c-0.2,1.3-0.7,2.1-0.7,1.4c0-0.7-0.4-2.3-0.1-3
				c0.3-0.7,0.2-4.1-2.2-6.4c-2.1-0.6-2.4,2-2,3.4c0.4,1.4-3.2-2.6-3.3-6.1c-0.1-3.6,0-4.8-0.5-5.6c-1.4-2.1-2,0.3-2,1.3l0,1.4
				c0,0-1.9-7.8,2.3-9c-0.4-0.3-2-0.8-3.7-0.2c-2.9,1.1-2.8,4.8-3.1,5.9c0.2-4,1.5-7.4,6.4-6.3c0.4,0.1,0.9,0.5,1.3,0.8
				c0.9,0.8,2.2,1.4,3.3,1c0.6-0.3,0.9-1.1,0.3-1.3s-0.9,0.9-1.9,0.9l0.3-0.4c-1.3-0.3-0.9-0.6-2.7-1.9c-1.7-1.2-9.4-1.9-7.9,9.6
				C8.6,35,8.8,35.4,8.6,35c-0.6-0.8-1.8-3.1-3.8-3c-2.3,2.8-0.1,7.1,2.6,8.1s4,2.7,2.7,2.6c-1.3-0.2-3.5-1.3-5-0.2
				c1.1,4.1,6.1,5.3,8.6,6.2s2.1,2.7,0.4,1.4c-1.1-0.9-3.7-0.3-3.8,0.4c-0.1,0.6-0.4,2.8,6.8,4.9c5.5,1.6,16,6.7,22.4,13.6
				C36.3,62.2,33.1,58.5,29.2,54.8z M23.5,54.3c0,0-0.1,0-0.2,0c-0.2,0-0.3,0-0.5,0c-0.3,0-0.6-0.1-0.9-0.1
				c-0.6-0.1-1.2-0.3-1.8-0.4c-1.2-0.4-2.3-0.9-3.4-1.6l0-0.1c1.1,0.5,2.3,0.9,3.5,1.2c0.6,0.1,1.2,0.2,1.8,0.2c0.2,0,0.3,0,0.5,0
				c-0.1-0.1-0.1-0.1-0.2-0.2c-0.2-0.1-0.3-0.3-0.5-0.4c-0.2-0.1-0.3-0.3-0.5-0.4c-0.3-0.3-0.7-0.6-1-0.9c-0.6-0.6-1.2-1.2-1.8-1.9
				c-0.8-0.9-1.4-1.8-2.1-2.8v0c-0.4,0-0.7-0.1-1.1-0.1c-0.3-0.1-0.7-0.1-1.1-0.2c-0.7-0.2-1.4-0.4-2.1-0.6c-1.3-0.5-2.6-1.2-3.8-2
				l0.1-0.1c1.2,0.8,2.5,1.4,3.8,1.8c0.7,0.2,1.3,0.4,2,0.5c0.3,0.1,0.7,0.1,1,0.2c0.2,0,0.4,0,0.6,0.1c-0.2-0.3-0.4-0.6-0.6-0.8
				c-0.8-1.2-1.4-2.4-2-3.7c-0.1,0-0.1,0-0.2-0.1c-0.2-0.1-0.3-0.2-0.4-0.3c-0.3-0.2-0.6-0.4-0.9-0.6c-0.3-0.2-0.6-0.4-0.8-0.6
				c-0.3-0.2-0.5-0.4-0.8-0.7c-0.2-0.2-0.5-0.4-0.7-0.7c-0.2-0.2-0.5-0.5-0.7-0.8c-0.4-0.5-0.9-1.1-1.2-1.7l0.1,0
				c0.4,0.5,0.8,1,1.3,1.5c0.2,0.2,0.5,0.4,0.7,0.7c0.2,0.2,0.5,0.4,0.8,0.6c0.5,0.4,1.1,0.8,1.6,1.2c0.3,0.2,0.6,0.4,0.8,0.5
				c0,0,0,0,0,0c0,0,0,0,0-0.1c-0.7-1.6-1.2-3.2-1.6-4.9c-0.2-0.8-0.3-1.7-0.3-2.6c0-0.9,0-1.7,0.2-2.6l0.1,0
				c-0.1,0.8-0.2,1.7-0.1,2.5c0.1,0.8,0.2,1.7,0.4,2.5c0.4,1.6,1,3.2,1.7,4.8c0.4,0.9,0.9,1.8,1.4,2.7c0-0.1-0.1-0.3-0.1-0.4
				c-0.1-0.6-0.2-1.3-0.3-1.9c-0.2-1.3-0.3-2.5-0.4-3.8h0.1c0.1,1.3,0.3,2.5,0.5,3.8c0.1,0.6,0.2,1.2,0.4,1.9c0.1,0.5,0.2,1,0.4,1.5
				c0.2,0.2,0.3,0.5,0.5,0.7c0.9,1.4,2,2.7,3.1,4c0.6,0.6,1.1,1.2,1.7,1.8c0.3,0.3,0.6,0.6,0.9,0.9c0.1,0.1,0.2,0.1,0.2,0.2
				c0-0.2-0.1-0.4-0.1-0.6c-0.1-0.3-0.1-0.6-0.2-0.9c-0.1-0.3-0.1-0.6-0.2-0.9c-0.1-0.6-0.3-1.2-0.5-1.9c-0.2-0.6-0.3-1.2-0.6-1.9
				l0.1,0c0.3,0.6,0.6,1.2,0.8,1.8c0.2,0.6,0.4,1.2,0.6,1.9c0.1,0.3,0.2,0.6,0.2,0.9c0.1,0.3,0.1,0.6,0.2,1c0.1,0.3,0.1,0.6,0.2,1
				c0,0.1,0,0.2,0,0.2c0,0,0.1,0.1,0.1,0.1c0.3,0.2,0.6,0.5,0.9,0.8c0,0,0,0,0,0v0c3.2,2.9,7.6,5.4,10.3,8.7
				c-2.2-1.9-3.8-3.4-6.4-5.1C26.7,56.6,24,54.5,23.5,54.3z"/>
			<path class="st0" d="M6.9,31.5c-0.4-2.7-0.6-3.9,1.4-6.3c1.9-2.4,1.6-4.7,1.1-5.1C5.4,20.5,4,25,5.1,27.8
				c0.2-0.6,0.3-0.1,0.1-2.3C5,23.4,2.6,22,1,21.8c-0.1,5.9,1.1,4.1,2.2,6.4C4.2,30.2,6.9,31.5,6.9,31.5z"/>
		</g>
		<path class="st0" d="M22.1,3.1C21.5,1,17-0.3,12,3.1s-6.4,7.4-7.1,9.4C4,10.2,3.4,9.8,3,11.2s-0.2,3.9,0.4,4.8
			c-1.7-1-2.2-0.4-2,1.3s-0.3,4.7,3.2,8c0.2-2.6,0.3-5,4.3-6.2c4.1-1.2,5.7-4.3,4.3-4.6c-1.3-0.3-4.5-0.2-5.8,1.7
			c1.6-2.3,3.4-2.5,4.8-3.3c1.5-0.8,3.1-3.4,1.2-4.1c-1.9-0.7-5.1,0.8-5.1,0.8s1.5-2.1,4.2-3.2c2.6-1.1,2.4-1.6,2.1-2.3
			c0.3-1.3,4.1-2.5,5.7-1.6s0,2-0.6,1.5c-0.8-0.7-2.1,0.6-1,1.4C19.8,6.1,22.7,5.2,22.1,3.1z M11.6,10.2c-2.1,1.1-5.5,2.6-7,7.7
			C6,17.4,6.9,17,8.5,16.5c0.9-0.6,2.9-0.4,2.9-0.4c-0.2,0.2-1.3,0.2-1.8,0.4c-2.1,0.8-2.8,1.1-3.8,1.4c-1.5,0.5-1.6,1.3-1.6,1.3
			v-0.1C4.1,20.1,4,21,3.9,22.1C3.6,21,3.4,12.2,11.6,10.2z"/>
	</g>
	<path class="st0" d="M26.8,61c-3.6,0-2.5,3-0.5,2.3c2.4-0.9,5.1-0.8,6.2,0C29.8,61.1,27.4,61,26.8,61z"/>
	<path class="st0" d="M21.9,58.7c-4.2,0-2.9,3.5-0.6,2.7c2.8-1.1,5.3-1,7.3-0.4C25.1,58.7,22.6,58.7,21.9,58.7z"/>
</g>
<g>
	<g>
		<g>
			<path class="st0" d="M270.7,69c6.4-6.9,17-12,22.4-13.6c7.2-2.1,6.9-4.3,6.8-4.9c-0.2-0.7-2.7-1.2-3.8-0.4
				c-1.7,1.3-2.1-0.6,0.4-1.4c2.6-0.9,7.5-2.1,8.6-6.2c-1.4-1.1-3.7,0-5,0.2c-1.3,0.2,0-1.6,2.7-2.6c2.7-1,4.9-5.3,2.6-8.1
				c-2-0.1-3.2,2.2-3.8,3c-0.2,0.4,0,0,0.4-0.9c1.5-11.6-6.2-10.9-7.9-9.6c-1.9,1.3-1.4,1.6-2.7,1.9l0.3,0.4c-0.9,0-1.2-1.1-1.9-0.9
				c-0.6,0.2-0.3,1,0.3,1.3c1,0.5,2.3-0.2,3.3-1c0.3-0.3,0.8-0.7,1.3-0.8c4.9-1,6.2,2.4,6.4,6.3c-0.3-1.1-0.3-4.8-3.1-5.9
				c-1.7-0.7-3.3-0.1-3.7,0.2c4.2,1.2,2.3,9,2.3,9l0-1.4c0-1-0.6-3.4-2-1.3c-0.5,0.8-0.4,2-0.5,5.6c-0.1,3.6-3.8,7.6-3.3,6.1
				c0.4-1.4,0.1-4-2-3.4c-2.4,2.3-2.5,5.7-2.2,6.4c0.3,0.7-0.1,2.3-0.1,3s-0.6-0.1-0.7-1.4c-0.1-0.9-1.6-1.7-2.1-1.3
				c-1.4,1.4-0.2,5.1-2.6,7.3C277.2,58.5,274,62.2,270.7,69z M282.6,57.2c-2.6,1.7-4.2,3.1-6.4,5.1c2.7-3.3,7-5.9,10.3-8.7v0
				c0,0,0,0,0,0c0.3-0.3,0.6-0.5,0.9-0.8c0,0,0.1-0.1,0.1-0.1c0-0.1,0-0.2,0-0.2c0-0.3,0.1-0.7,0.2-1c0.1-0.3,0.1-0.6,0.2-1
				c0.1-0.3,0.2-0.6,0.2-0.9c0.2-0.6,0.4-1.2,0.6-1.9c0.2-0.6,0.5-1.2,0.8-1.8l0.1,0c-0.2,0.6-0.4,1.2-0.6,1.9
				c-0.2,0.6-0.3,1.2-0.5,1.9c-0.1,0.3-0.1,0.6-0.2,0.9s-0.1,0.6-0.2,0.9c0,0.2-0.1,0.4-0.1,0.6c0.1-0.1,0.2-0.1,0.2-0.2
				c0.3-0.3,0.6-0.6,0.9-0.9c0.6-0.6,1.2-1.2,1.7-1.8c1.1-1.2,2.2-2.6,3.1-4c0.2-0.2,0.3-0.5,0.5-0.7c0.1-0.5,0.2-1,0.4-1.5
				c0.1-0.6,0.3-1.2,0.4-1.9c0.2-1.2,0.4-2.5,0.5-3.8h0.1c-0.1,1.3-0.2,2.6-0.4,3.8c-0.1,0.6-0.2,1.3-0.3,1.9c0,0.1-0.1,0.3-0.1,0.4
				c0.5-0.9,1-1.7,1.4-2.7c0.7-1.5,1.3-3.1,1.7-4.8c0.2-0.8,0.3-1.7,0.4-2.5c0.1-0.8,0-1.7-0.1-2.5l0.1,0c0.2,0.8,0.2,1.7,0.2,2.6
				s-0.1,1.7-0.3,2.6c-0.3,1.7-0.9,3.3-1.6,4.9c0,0,0,0,0,0.1c0,0,0,0,0,0c0.3-0.2,0.6-0.3,0.8-0.5c0.6-0.4,1.1-0.8,1.6-1.2
				c0.3-0.2,0.5-0.4,0.8-0.6c0.2-0.2,0.5-0.4,0.7-0.7c0.5-0.5,0.9-1,1.3-1.5l0.1,0c-0.3,0.6-0.7,1.2-1.2,1.7
				c-0.2,0.3-0.4,0.5-0.7,0.8c-0.2,0.2-0.5,0.5-0.7,0.7c-0.2,0.2-0.5,0.4-0.8,0.7s-0.5,0.4-0.8,0.6c-0.3,0.2-0.6,0.4-0.9,0.6
				c-0.1,0.1-0.3,0.2-0.4,0.3c-0.1,0-0.1,0-0.2,0.1c-0.6,1.3-1.3,2.5-2,3.7c-0.2,0.3-0.4,0.6-0.6,0.8c0.2,0,0.4,0,0.6-0.1
				c0.3,0,0.7-0.1,1-0.2c0.7-0.1,1.4-0.3,2-0.5c1.3-0.4,2.6-1,3.8-1.8l0.1,0.1c-1.1,0.9-2.4,1.5-3.8,2c-0.7,0.2-1.3,0.5-2.1,0.6
				c-0.3,0.1-0.7,0.2-1.1,0.2c-0.3,0.1-0.7,0.1-1.1,0.1v0c-0.7,1-1.4,1.9-2.1,2.8c-0.6,0.7-1.1,1.3-1.8,1.9c-0.3,0.3-0.6,0.6-1,0.9
				c-0.2,0.1-0.3,0.3-0.5,0.4c-0.2,0.1-0.3,0.3-0.5,0.4c-0.1,0.1-0.1,0.1-0.2,0.2c0.2,0,0.3,0,0.5,0c0.6,0,1.2-0.1,1.8-0.2
				c1.2-0.2,2.4-0.6,3.5-1.2l0,0.1c-1.1,0.7-2.2,1.2-3.4,1.6c-0.6,0.2-1.2,0.3-1.8,0.4c-0.3,0.1-0.6,0.1-0.9,0.1c-0.2,0-0.3,0-0.5,0
				c-0.1,0-0.1,0-0.2,0C286.3,54.5,283.6,56.6,282.6,57.2z"/>
			<path class="st0" d="M303.4,31.5c0.4-2.7,0.6-3.9-1.4-6.3c-1.9-2.4-1.6-4.7-1.1-5.1c4.1,0.3,5.5,4.9,4.4,7.6
				c-0.2-0.6-0.3-0.1-0.1-2.3c0.2-2.1,2.6-3.5,4.2-3.7c0.1,5.9-1.1,4.1-2.2,6.4C306,30.2,303.4,31.5,303.4,31.5z"/>
		</g>
		<path class="st0" d="M291.5,5.4c1.1-0.8-0.3-2-1-1.4c-0.6,0.5-2.2-0.6-0.6-1.5s5.4,0.3,5.7,1.6c-0.3,0.7-0.5,1.2,2.1,2.3
			c2.6,1.1,4.2,3.2,4.2,3.2s-3.1-1.6-5.1-0.8c-1.9,0.7-0.3,3.3,1.2,4.1c1.4,0.8,3.2,1,4.8,3.3c-1.3-1.9-4.6-2-5.8-1.7
			c-1.3,0.3,0.3,3.4,4.3,4.6s4.1,3.6,4.3,6.2c3.6-3.3,3.1-6.3,3.2-8c0.1-1.7-0.4-2.3-2-1.3c0.7-0.9,0.9-3.3,0.4-4.8
			c-0.4-1.5-1-1.1-2,1.3c-0.7-2.1-2.1-6-7.1-9.4c-5-3.4-9.6-2.1-10.1,0C287.5,5.2,290.4,6.1,291.5,5.4z M306.4,22.1
			c-0.1-1.1-0.2-2-0.4-2.9v0.1c0,0-0.1-0.9-1.6-1.3c-1-0.3-1.7-0.7-3.8-1.4c-0.5-0.1-1.6-0.2-1.8-0.4c0,0,2-0.2,2.9,0.4
			c1.6,0.4,2.5,0.9,3.9,1.4c-1.5-5.1-4.8-6.6-7-7.7C306.9,12.2,306.7,21,306.4,22.1z"/>
	</g>
	<path class="st0" d="M283.5,61c3.6,0,2.5,3,0.5,2.3c-2.4-0.9-5.1-0.8-6.2,0C280.4,61.1,282.9,61,283.5,61z"/>
	<path class="st0" d="M288.4,58.7c4.2,0,2.9,3.5,0.6,2.7c-2.8-1.1-5.3-1-7.3-0.4C285.2,58.7,287.7,58.7,288.4,58.7z"/>
</g>
<g>
	<path class="st1" d="M29.9,19.8c0.7,0.8,1.8,0.9,2.7,0.4c0,0,0,0,0,0c0.2,0.8,0.9,1.4,1.7,1.5c0.8,0.1,1.8,0.2,2.8,0.2
		c3.1,0,4.9-1.9,4.9-5.2v-3.9h1.5c1.2,0,2.1-1,2.1-2.1v-0.1c1.2,0.7,2.6,1.7,3.2,2.3c0.3,0.3,0.7,0.5,1.2,0.5
		c-1.3,0.7-2.7,1.3-4.1,1.6c-0.6,0.2-1.2,0.6-1.4,1.2c-0.3,0.6-0.2,1.3,0.1,1.9l1.5,2.7c0.4,0.7,1.1,1.1,1.9,1.1
		c0.2,0,0.5,0,0.7-0.1c4.6-1.5,9.1-4.7,11.9-8.3c0.4,0.4,0.9,0.6,1.5,0.6h5.3c-0.8,0.5-1.8,0.9-2.9,1.3c-0.7,0.2-1.2,0.7-1.4,1.4
		c-0.2,0.7-0.1,1.4,0.3,1.9l1.8,2.4c0.4,0.6,1.1,0.9,1.7,0.9c0.2,0,0.5,0,0.7-0.1c3.9-1.4,6.7-3.9,8.5-7.3l0.9,1.5
		c0.5,0.9,1.6,1.3,2.6,0.9c0.6-0.2,1.3-0.5,1.9-0.9v3.8c0,1.2,1,2.1,2.1,2.1h2.9c1.2,0,2.1-1,2.1-2.1v-8.3c1-0.8,1.8-1.5,2.6-2.3
		c0.2,0.4,0.5,0.7,0.9,0.9c1.3,0.7,3,1.9,3.8,2.6c0.3,0.3,0.7,0.5,1.2,0.5c-1.3,0.7-2.7,1.3-4.1,1.6c-0.6,0.2-1.2,0.6-1.4,1.2
		c-0.3,0.6-0.2,1.3,0.1,1.9l1.5,2.7c0.4,0.7,1.1,1.1,1.9,1.1c0.2,0,0.5,0,0.7-0.1c5.1-1.7,10.1-5.5,12.8-9.5
		c0.1-0.2,0.2-0.5,0.3-0.7h6.2c-1.1,1.7-2.9,3-5.5,4c-0.7,0.2-1.1,0.8-1.3,1.5c-0.2,0.7,0,1.4,0.4,1.9l1.9,2.3
		c0.4,0.5,1,0.7,1.6,0.7c0.3,0,0.6-0.1,0.8-0.2c5-2.1,8.2-5.6,9.9-10.9v8c0,1.2,1,2.1,2.1,2.1H138c1.2,0,2.1-1,2.1-2.1v-3.8l0.9,0.8
		c0.2,0.1,0.3,0.2,0.5,0.3c-0.3,0.3-0.5,0.6-0.6,1c-0.2,0.7,0,1.4,0.4,1.9l1.9,2.3c0.4,0.5,1,0.8,1.6,0.8c0.3,0,0.6-0.1,0.8-0.2
		c4.6-1.9,7.4-4.7,9.1-9.4c0.2,0.9,1.1,1.6,2,1.6h5.3c-0.8,0.5-1.8,0.9-2.9,1.3c-0.7,0.2-1.2,0.7-1.4,1.4c-0.2,0.7-0.1,1.4,0.3,1.9
		l1.8,2.4c0.4,0.6,1.1,0.9,1.7,0.9c0.2,0,0.5,0,0.7-0.1c3.1-1.2,5.6-3,7.4-5.4c0,0.2,0.1,0.4,0.2,0.6c0.3,0.5,0.8,0.9,1.4,1.1
		c3.6,0.8,7.8,2.3,10.1,3.6c0.3,0.2,0.7,0.3,1,0.3c0.2,0,0.4,0,0.6-0.1c0.5-0.2,1-0.5,1.3-1l1.4-2.6c0,0,0,0,0-0.1l1.4,2.5
		c0.4,0.7,1.1,1.1,1.9,1.1c0.2,0,0.5,0,0.7-0.1c4.3-1.4,8.6-4.3,11.3-7.6l2,1.6c0.2,0.1,0.3,0.2,0.5,0.3c-0.3,0.3-0.5,0.6-0.6,1
		c-0.2,0.7,0,1.4,0.4,1.9l1.9,2.3c0.4,0.5,1,0.8,1.6,0.8c0.3,0,0.6-0.1,0.8-0.2c5.6-2.3,8.5-6.1,10.2-12.7c0.1,1,1,1.8,2.1,1.8h3.9
		c-1.3,1.7-3.3,3.5-5.9,4.6c-0.6,0.3-1.1,0.8-1.2,1.4c-0.2,0.6,0,1.3,0.4,1.8L219,21c0.6,0.8,1.7,1,2.6,0.6c1.8-0.9,3.4-2,4.9-3.3
		c0.8,0.9,1.6,1.8,2.2,2.7c0.4,0.6,1.1,0.9,1.7,0.9c0.4,0,0.8-0.1,1.2-0.4l2.5-1.7c0.2-0.2,0.4-0.4,0.6-0.6l1.7,2
		c0.4,0.5,1,0.8,1.6,0.8c0.3,0,0.6-0.1,0.8-0.2c4.1-1.7,6.8-4.2,8.6-8c0,1.2,1,2.1,2.1,2.1h13.1c-0.5,0.4-0.8,0.9-0.9,1.5
		c-0.1,0.7,0.2,1.3,0.7,1.8l2.2,2c0.4,0.4,0.9,0.6,1.4,0.6c0.4,0,0.9-0.1,1.2-0.4c1.2-0.9,2.2-1.8,3-2.8c0.1,0.5,0.5,1,1,1.3
		l2.2,1.3c0.7,0.4,1.6,0.4,2.3,0c2.5-1.6,4.6-3.6,6.3-5.6c0.5-0.6,0.6-1.5,0.3-2.2l-1.2-2.7c-0.3-0.7-1-1.2-1.7-1.2
		c-0.8-0.1-1.5,0.3-1.9,0.9c0,0-0.1,0.1-0.1,0.1V5.5c0-1.2-1-2.1-2.1-2.1h-2.8c-0.5,0-0.9,0.2-1.3,0.4c-0.2-0.1-0.5-0.1-0.8-0.1
		h-2.8c-1.2,0-2.1,1-2.1,2.1v3.9c-0.4-0.6-1-1.1-1.8-1.1h-14c-0.2,0-0.3,0-0.4,0c0,0,0-0.1,0-0.1c0.2-1-0.3-2-1.2-2.4l-2-0.9
		c-0.3-0.1-0.6-0.2-0.9-0.2h-1.3c0-0.1-0.1-0.2-0.1-0.3c-0.2-0.5-0.7-0.9-1.2-1.1l-2.6-0.9c-1.1-0.4-2.3,0.2-2.7,1.2
		c-0.8,2.1-2.8,5-5,6.7c-0.1,0.1-0.2,0.1-0.2,0.2c0.4-0.9,0.8-1.8,1.1-2.8c0.3-1-0.1-2-1-2.5l-1.9-1.1c-0.3-0.2-0.7-0.3-1.1-0.3h-9
		c-0.1,0-0.1,0-0.2,0c-0.5-0.7-1-1.3-1.8-2c-0.8-0.7-1.9-0.7-2.8-0.1l-0.6,0.5c-0.6-0.1-1.1,0.1-1.6,0.5L212,3.9
		c-0.2-0.2-0.4-0.3-0.6-0.4l-2.6-0.9c-1.1-0.4-2.3,0.2-2.7,1.2c-0.7,1.7-2.1,3.9-3.8,5.6l-1.7-2c-0.4-0.5-1.1-0.8-1.8-0.8
		c-0.7,0-1.3,0.4-1.7,1c-0.8,1.2-1.8,2.4-3.1,3.5l0.8-1c0.7-0.9,0.6-2.2-0.3-3c-1.3-1.1-3.4-2.4-4.7-3.1c-0.9-0.5-2.1-0.3-2.7,0.6
		l-1.3,1.6c-0.2-0.4-0.6-0.7-1-0.9c-3-1.1-6.9-2.2-10.3-2.8c-1.1-0.2-2.1,0.4-2.4,1.4l-0.8,2.5c-0.2,0.6-0.1,1.2,0.2,1.7
		c0.2,0.3,0.5,0.6,0.8,0.8l-0.2,0.7c-0.2-0.4-0.4-0.7-0.7-0.9l-0.8-0.6c0-0.1,0-0.2,0-0.4V5.4c0-1.2-1-2.1-2.1-2.1h-9.8
		c-0.4,0-0.8,0.1-1.2,0.4c-0.4-0.5-0.8-1-1.4-1.5c-0.8-0.7-1.9-0.7-2.8-0.1l-0.6,0.5c-0.6-0.1-1.1,0.1-1.6,0.5l-1.2,0.9
		c-0.2-0.2-0.4-0.3-0.6-0.4l-2.6-0.9c-1.1-0.4-2.3,0.2-2.7,1.2c-0.7,1.7-2.1,4-3.8,5.7V6.8c0-1.2-1-2.1-2.1-2.1h-12.4
		c-0.4-1.7-1.9-3-3.8-3c-1.8,0-3.3,1.2-3.7,2.9h-9.3c-1.2,0-2.1,1-2.1,2.1v0.8c-0.4-0.5-1.1-0.8-1.8-0.7c-0.7,0-1.3,0.4-1.7,1
		c-0.8,1.2-1.8,2.4-3.1,3.5l0.8-1c0.7-0.9,0.6-2.2-0.3-3C99.7,6.3,97.8,5,96.1,4c-0.9-0.5-2.1-0.3-2.7,0.6l-0.5,0.7
		c-0.1-0.2-0.3-0.4-0.4-0.5L90.2,3c-0.4-0.4-1-0.5-1.6-0.5c-0.6,0.1-1.1,0.3-1.4,0.8c-1.6,2.1-6.3,5.4-9.8,6.7
		c-0.1-0.5-0.4-0.9-0.8-1.2l-0.8-0.6c0-0.1,0-0.2,0-0.4V5.4c0-1.2-1-2.1-2.1-2.1h-9.8c-1.2,0-2.1,1-2.1,2.1v1.8
		c-0.6,0.1-1.2,0.5-1.5,1.1l-0.7-0.8c-0.4-0.5-1.1-0.8-1.8-0.8c-0.7,0-1.3,0.4-1.7,1c-0.8,1.2-1.8,2.4-3.1,3.5l0.8-1
		c0.7-0.9,0.6-2.2-0.3-3C52.5,6.3,50.7,5,48.9,4c-0.9-0.5-2.1-0.3-2.7,0.6l-1.3,1.6c-0.4-0.3-0.8-0.4-1.3-0.4h-1.5V4.7
		c0-1.2-1-2.1-2.1-2.1h-2.8c-1.2,0-2.1,1-2.1,2.1v1.1h-5.1c-1.2,0-2.1,1-2.1,2.1v2.6c0,1.2,1,2.1,2.1,2.1h1.3
		c-0.9,0.7-1.8,1.3-2.6,1.7c-0.6,0.3-1,0.9-1.1,1.5c-0.1,0.7,0.1,1.3,0.5,1.8L29.9,19.8z M147.4,11.7c-0.4,0.7-1,1.3-1.6,1.9
		C146.4,12.9,146.9,12.3,147.4,11.7L147.4,11.7z M209.5,11.7c-0.4,0.7-1,1.3-1.6,1.9C208.5,12.9,209,12.3,209.5,11.7L209.5,11.7z
		 M240.6,11.7c-0.4,0.7-1,1.3-1.6,1.9C239.6,12.9,240.1,12.3,240.6,11.7L240.6,11.7z M232.1,13.9l2.1,1.7c0.2,0.1,0.3,0.2,0.5,0.3
		c-0.1,0.1-0.3,0.3-0.4,0.4c-1.1-1.2-2.3-2.5-3.5-3.6c0.2-0.3,0.3-0.5,0.4-0.8c0,0.1,0,0.2,0,0.3C231.3,12.9,231.6,13.5,232.1,13.9z
		 M184.9,11c0-0.1,0.1-0.1,0.1-0.2l0.6-1.3c0.2,0.2,0.4,0.4,0.6,0.5c1.4,0.7,3,1.9,3.8,2.6c0.3,0.3,0.7,0.5,1.2,0.5
		c-1.3,0.7-2.7,1.3-4.1,1.6c-0.6,0.1-1.1,0.6-1.4,1.1c-0.2-0.3-0.5-0.6-0.9-0.8c-0.3-0.2-0.7-0.3-1-0.5l1-2.2
		C185,12.1,185.1,11.5,184.9,11z M122.2,5.7l-0.7-0.4c0.1-0.2,0.2-0.3,0.4-0.3c0.2,0,0.4,0.2,0.4,0.4C122.3,5.6,122.3,5.6,122.2,5.7
		z M130.1,13.9v-2.4h2.9v2.4H130.1z"/>
	<path class="st1" d="M191.9,60c-2.1-1.1-4-2.6-5.6-4.6c2-3.9,3.2-8.5,3.7-14h0.4c1.2,0,2.1-1,2.1-2.1v-4.8c0-1.2-1-2.1-2.1-2.1
		h-7.9c0.2-1,0.4-2,0.5-3.1c0.2-1.2-0.6-2.2-1.8-2.4c-1.6-0.2-3.2-0.5-5-0.8c-0.6-0.1-1.2,0.1-1.6,0.4c-0.5,0.4-0.8,0.9-0.8,1.5
		c0,0.4-0.1,0.8-0.2,1.2c-0.2-0.2-0.4-0.3-0.7-0.4l-4.3-1.8c-0.5-0.2-1.2-0.2-1.7,0c-0.1,0-0.2,0.1-0.3,0.1
		c-0.4-0.6-1.1-1.1-1.9-1.1H160c-0.8,0-1.5,0.4-1.8,1.1c-0.6-0.3-1.3-0.4-1.9-0.1l-3.7,1.7c-0.5,0.2-0.9,0.7-1.1,1.3
		c-0.2,0.6-0.1,1.2,0.1,1.7c0.3,0.6,0.6,1.2,0.8,1.7c-1.1,0.1-1.9,1-1.9,2.1v3.1c-0.4-0.5-1-0.8-1.6-0.8h-3c1.1-1.3,2.1-2.6,3-4
		c0.3-0.5,0.5-1.1,0.3-1.7c-0.1-0.6-0.5-1.1-1.1-1.4l-4.3-2.3c-1-0.5-2.2-0.2-2.8,0.7c-0.4,0.5-0.7,1.1-1.1,1.6
		c-0.4-0.3-0.9-0.5-1.4-0.5h-5.8v-1.9c0-1.2-1-2.1-2.1-2.1h-5.3c-1.2,0-2.1,1-2.1,2.1v1.9H116c-1.2,0-2.1,1-2.1,2.1v4.5
		c0,0.4,0.1,0.7,0.3,1h-2.9c-1.1,0-1.9,0.8-2.1,1.8c-0.2-0.2-0.5-0.4-0.8-0.5v-2.5c0.6-0.4,1-1,1-1.8v-3.6c0-1.2-1-2.1-2.1-2.1h-1.9
		v-0.7c0-1.2-1-2.1-2.1-2.1h-5c-1.2,0-2.1,1-2.1,2.1V29h-0.2v-0.7c0-1.2-1-2.1-2.1-2.1h-5c-1.2,0-2.1,1-2.1,2.1V29h-1.9
		c-0.1,0-0.2,0-0.2,0c-0.2-1-1-1.7-2.1-1.7H72.1c-1.2,0-2.1,1-2.1,2.1v3.4c-1.1,0.1-2,1-2,2.1v4.1c0,0.1,0,0.2,0,0.3
		c-0.4-0.7-1.1-1.1-1.9-1.1h-3c0.5-0.8,0.9-1.6,1.3-2.4c0.3-0.5,0.3-1.2,0.1-1.8c0,0,0,0,0,0c0.5-0.2,1-0.6,1.2-1.2
		c0.3-0.6,0.2-1.3-0.1-1.9l-2.2-3.9c-0.5-0.9-1.5-1.3-2.4-1c-6.6,1.9-19.6,3.1-29,2.7c-0.7,0-1.4,0.3-1.8,0.9
		c-0.4,0.6-0.5,1.3-0.3,2l1.4,4.1c0.2,0.7,0.8,1.2,1.4,1.3c0,0,0.1,0.1,0.1,0.1c0.2,0.3,0.4,0.6,0.5,0.9h-2.9c-1.2,0-2.1,1-2.1,2.1
		v8.5c0,1.2,1,2.1,2.1,2.1h4c0.1,0.8,0.6,1.5,1.3,1.8c0.1,0.2,0.2,0.4,0.3,0.5c1,1.4,2.2,2.7,3.5,4c-2.9,0.9-6.4,1.6-10.2,2.1
		c-0.7,0.1-1.4,0.6-1.7,1.2s-0.2,1.5,0.2,2.1l3.1,4.5c0.5,0.7,1.3,1,2.1,0.9c6.1-1,11.1-2.6,15.3-4.7c4.3,2.1,9.5,3.7,15.3,4.7
		c0.1,0,0.2,0,0.4,0c0.7,0,1.4-0.3,1.8-0.9l3.1-4.6c0.1-0.1,0.1-0.2,0.2-0.3v3.7c0,1.2,1,2.1,2.1,2.1h4.6c1,0,1.8-0.6,2-1.5h5.3
		c0.3,0,0.6-0.1,0.9-0.2c0.2,1,1,1.8,2.1,1.8h5.1c1.2,0,2.1-1,2.1-2.1v-3.8h2.3c0,0,0,0,0,0l0.8,4.2c0.2,1,1,1.7,2,1.7
		c0.6,0,1.2,0,1.7,0c1.7,0,2.9-0.1,3.6-0.2c2.8-0.5,4.2-2.5,4.2-5.7c1-0.2,1.8-1,1.8-2.1v-3.9c0-1.1-0.8-2-1.8-2.1v-7.4
		c0.6-0.1,1.1-0.5,1.4-1c0.4,0.5,1,0.9,1.7,0.9h5.5c-2,0.7-4.1,1.3-6.4,1.9c-0.7,0.2-1.3,0.7-1.5,1.4c-0.2,0.7-0.1,1.5,0.4,2
		l0.1,0.1c1.1,1.3,2.2,2.6,3.4,4c0.5,0.7,1.4,0.9,2.2,0.7c0.9-0.3,1.8-0.6,2.9-0.9v10.2c0,1.2,1,2.1,2.1,2.1h5.3
		c0.9,0,1.7-0.5,2-1.3l8.6,0c0.3,0.8,1.1,1.3,2,1.3h5.4c1.2,0,2.1-1,2.1-2.1V46.7c0,0,0-0.1,0-0.1h3.7c0.7,0,1.4-0.4,1.8-0.9l0.8,1
		c-0.6,0.4-1,1-1,1.8v4.1c0,1.1,0.9,2.1,2,2.1c-0.4,0.8-0.7,1.4-1.1,2c-0.3,0.5-0.4,1.2-0.1,1.8c0.2,0.6,0.7,1.1,1.3,1.3l0.5,0.2
		c-0.3,0.1-0.6,0.1-0.9,0.2c-0.7,0.2-1.3,0.7-1.6,1.4c-0.2,0.7-0.1,1.5,0.3,2l3.1,3.8c0.5,0.7,1.4,0.9,2.2,0.7
		c3.4-0.9,6.1-2.1,8.3-3.5c0.7,0.4,1.3,0.8,2,1.3c0.8,0.6,2,0.5,2.7-0.2l0.7-0.7l2.6,2.6c0.7,0.7,1.9,0.8,2.7,0.2
		c2.1-1.5,3.9-3,5.5-4.5c1.6,1.8,3.4,3.3,5.5,4.6c0.3,0.2,0.7,0.3,1.1,0.3c0.6,0,1.2-0.3,1.6-0.7l3.5-4.1c0.4-0.5,0.6-1.2,0.5-1.8
		S192.5,60.3,191.9,60z M52,36.4c0.7-0.1,1.4-0.2,2.1-0.3c-0.4,0.7-0.7,1.4-1.1,2.1h-0.2C52.5,37.7,52.2,37,52,36.4z M69.6,50.5
		c-0.3,0.4-0.4,0.8-0.4,1.3v8.7c-0.3-0.7-1-1.1-1.7-1.2c-3.9-0.4-7.4-1.1-10.5-2.1c1.7-1.8,3.1-3.9,4.2-6.1h5c1.2,0,2.1-1,2.1-2.1
		v-8.5c0-0.1,0-0.2,0-0.3c0.3,0.5,0.7,0.9,1.3,1v3.5c0,0.3,0.1,0.6,0.2,0.8c-0.1,0.3-0.2,0.5-0.2,0.8v3.9
		C69.5,50.2,69.6,50.4,69.6,50.5z M171.6,54.6h1c1.1,0,2-0.8,2.1-1.9c0.3,0.8,0.6,1.5,0.9,2.3c-1,1.2-2.2,2.3-3.6,3.4
		c-0.5-0.3-1-0.6-1.5-0.9C171,56.6,171.3,55.6,171.6,54.6z M151.2,42.1c-0.1,0-0.1,0.1-0.2,0.1V41c0.3,0.3,0.6,0.6,1.1,0.7
		C151.8,41.8,151.5,42,151.2,42.1z"/>
	<path class="st1" d="M225.1,26.3h-7.2c-1.2,0-2.1,1-2.1,2.1v16.1L205,27.3c-0.4-0.6-1.1-1-1.8-1h-6.3c-1.2,0-2.1,1-2.1,2.1v37.5
		c0,1.2,1,2.1,2.1,2.1h7.2c1.2,0,2.1-1,2.1-2.1V50.1L217,67c0.4,0.6,1.1,1,1.8,1h6.4c1.2,0,2.1-1,2.1-2.1V28.4
		C227.2,27.2,226.3,26.3,225.1,26.3z"/>
	<path class="st1" d="M265.7,55.3h-8.5c-0.8,0-1.6,0.5-1.9,1.2c0.1-0.8,0.2-1.7,0.2-2.6v-3.3c0-9.2-5-14.5-13.9-14.5
		s-13.9,5.3-13.9,14.5v3.3c0,9.1,5.2,14.6,13.9,14.6c7.4,0,12.2-3.8,13.5-10.6v8c0,1.2,1,2.1,2.1,2.1h8.5c1.2,0,2.1-1,2.1-2.1v-8.5
		C267.8,56.2,266.9,55.3,265.7,55.3z M238.9,50.8c0-4.6,1.6-4.6,2.7-4.6s2.7,0,2.7,4.6v2.8c0,4.7-1.6,4.7-2.7,4.7
		c-1.2,0-2.7,0-2.7-4.7V50.8z"/>
	<path class="st1" d="M280.2,26.3h-6.8c-0.4,0-0.8,0.1-1.2,0.4l-6.1,4.1c-0.6,0.4-0.9,1.1-0.9,1.8v7.3c0,0.8,0.4,1.5,1.1,1.9
		c0.7,0.4,1.5,0.3,2.2-0.1l2.1-1.4v25.6c0,1.2,1,2.1,2.1,2.1h7.6c1.2,0,2.1-1,2.1-2.1V28.4C282.3,27.2,281.4,26.3,280.2,26.3z"/>
</g>
<g>
	<path class="st2" d="M31.5,18.3l-1.9-2.1c2.3-1.1,5-3.6,6.7-5.7h-6.4V7.9h7.3V4.7H40v3.2h3.6v2.6H40v6.1c0,2.1-0.8,3.1-2.8,3.1
		c-0.8,0-1.7,0-2.5-0.2v-2.7c0.7,0.1,1.4,0.1,1.8,0.1c0.4,0,0.7-0.2,0.7-0.6v-2.8C35.5,15.3,33.4,17.2,31.5,18.3z"/>
	<path class="st2" d="M52.3,8.8l-1.8,2.3c-1-0.9-2.8-2.2-4.3-2.9l1.7-2.3C49.4,6.7,51.2,7.9,52.3,8.8z M58,8.8l1.8,2.1
		c-2.4,3.8-7.2,7.2-11.6,8.7l-1.5-2.7C51.1,15.8,55.6,12.6,58,8.8z"/>
	<path class="st2" d="M73.5,9.3l1.9,1.3c-1.5,4.7-4.4,7.5-8.6,9.1l-1.8-2.4c3.7-1.1,6-3,6.8-5.4h-9.7V9.3H73.5z M73.7,5.4v2.5h-9.8
		V5.4H73.7z"/>
	<path class="st2" d="M86.7,19.7h-2.9v-7.4c-1.6,1-3.3,1.9-4.9,2.5l-1.5-2.5c3.8-1.2,9.4-5,11.5-7.6l2.2,1.8
		C90,7.7,88.4,9,86.7,10.3V19.7z"/>
	<path class="st2" d="M99.4,8.8l-1.8,2.3c-1-0.9-2.8-2.2-4.3-2.9L95,5.9C96.6,6.7,98.3,7.9,99.4,8.8z M105.1,8.8l1.8,2.1
		c-2.4,3.8-7.2,7.2-11.6,8.7l-1.5-2.7C98.2,15.8,102.8,12.6,105.1,8.8z"/>
	<path class="st2" d="M119.5,6.7l2.1,1.2c-1.3,5.8-4.1,9.6-9.3,11.8l-1.9-2.3c4.8-1.8,7.1-4.5,7.9-8.1h-9.4V6.7H119.5z M123.6,5.5
		c0,0.9-0.8,1.7-1.7,1.7s-1.7-0.8-1.7-1.7c0-1,0.8-1.7,1.7-1.7S123.6,4.5,123.6,5.5L123.6,5.5z M120.9,5.5c0,0.5,0.4,0.9,1,0.9
		s1-0.4,1-1c0-0.5-0.4-1-1-1S120.9,4.9,120.9,5.5L120.9,5.5z"/>
	<path class="st2" d="M138,6.8v11.9h-12.8V6.8H138z M135.1,16V9.4H128V16H135.1z"/>
	<path class="st2" d="M151.9,7.2l2,0.9c-1.4,6.1-3.9,9.5-9,11.7l-1.9-2.3c4.8-1.6,6.8-4.7,7.5-7.9h-4.2c-1.2,1.7-2.6,3.3-3.9,4.4
		l-2.1-1.7c2.5-1.9,4.7-5.1,5.7-7.6l2.6,0.9c-0.2,0.5-0.5,1.1-0.8,1.6H151.9z M152.4,4.6c0.7,0.6,1.1,1.1,1.6,1.9l-1.2,1
		c-0.5-0.8-0.9-1.3-1.6-1.9L152.4,4.6z M154.6,3.7c0.7,0.6,1.1,1.1,1.6,1.9l-1.2,1c-0.5-0.8-0.9-1.3-1.6-1.9L154.6,3.7z"/>
	<path class="st2" d="M168.2,9.3l1.9,1.3c-1.5,4.7-4.4,7.5-8.6,9.1l-1.8-2.4c3.7-1.1,6-3,6.8-5.4h-9.7V9.3H168.2z M168.5,5.4v2.5
		h-9.8V5.4H168.5z"/>
	<path class="st2" d="M183.9,17.1l-1.4,2.6c-2.5-1.4-7.1-3-10.7-3.9l1-2.6C176.6,14.2,181,15.8,183.9,17.1z M184.1,7.4L183,10
		c-2.6-1.2-6.5-2.2-9.6-2.8l0.8-2.5C177.7,5.3,181.4,6.4,184.1,7.4z M182.9,11.7l-1.1,2.5c-2.1-1-5-1.9-8-2.5l0.8-2.5
		C177.4,9.8,180.5,10.7,182.9,11.7z"/>
	<path class="st2" d="M193.2,8.8l-1.8,2.3c-1-0.9-2.8-2.2-4.3-2.9l1.7-2.3C190.4,6.7,192.2,7.9,193.2,8.8z M198.9,8.8l1.8,2.1
		c-2.4,3.8-7.2,7.2-11.6,8.7l-1.5-2.7C192.1,15.8,196.6,12.6,198.9,8.8z"/>
	<path class="st2" d="M214,7.2l2,0.9c-1.4,6.1-3.9,9.5-9,11.7l-1.9-2.3c4.8-1.6,6.8-4.7,7.5-7.9h-4.2c-1.2,1.7-2.6,3.3-3.9,4.4
		l-2.1-1.7c2.5-1.9,4.7-5.1,5.7-7.6l2.6,0.9c-0.2,0.5-0.5,1.1-0.8,1.6H214z M214.5,4.6c0.7,0.6,1.1,1.1,1.6,1.9l-1.2,1
		c-0.5-0.8-0.9-1.3-1.6-1.9L214.5,4.6z M216.7,3.7c0.7,0.6,1.1,1.1,1.6,1.9l-1.2,1c-0.5-0.8-0.9-1.3-1.6-1.9L216.7,3.7z"/>
	<path class="st2" d="M232.9,17.9l-2.5,1.7c-1-1.5-2.5-3.1-4-4.4c-1.7,1.9-3.7,3.3-5.8,4.4l-1.8-2.3c4.4-1.9,7.6-5.6,8.6-8.7H220
		V6.2h9l1.9,1.1c-0.7,2.2-1.7,4.1-2.9,5.8C229.9,14.6,231.5,16.3,232.9,17.9z"/>
	<path class="st2" d="M245.1,7.2l2,0.9c-1.4,6.1-3.9,9.5-9,11.7l-1.9-2.3c4.8-1.6,6.8-4.7,7.5-7.9h-4.2c-1.2,1.7-2.6,3.3-3.9,4.4
		l-2.1-1.7c2.5-1.9,4.7-5.1,5.7-7.6l2.6,0.9c-0.2,0.5-0.5,1.1-0.8,1.6H245.1z"/>
	<path class="st2" d="M263.6,10.8v2.9h-14v-2.9H263.6z"/>
	<path class="st2" d="M270.3,5.8v5.5c0,3.4-1.1,5.9-4.2,8.2l-2.2-2c3.1-1.9,3.6-3.7,3.6-6.3V5.8H270.3z M275.2,5.5v9.6
		c1.3-0.8,2.9-2.3,4-3.9l1.2,2.7c-1.6,2-3.7,3.8-5.8,5.2l-2.2-1.3V5.5H275.2z"/>
</g>
<g>
	<path class="st2" d="M67.2,61.4L64.1,66c-5.7-1-11.1-2.6-15.6-5c-4.4,2.4-9.7,3.9-15.7,5l-3.1-4.5c5.5-0.6,10.2-1.7,14.1-3.5
		c-2.3-1.7-4.2-3.7-5.9-5.9l3.1-1.2h-4.3v-4.4h17.9h1h0.5l4,1.4C58.7,52,56.3,55.3,53,58C57.2,59.7,62,60.8,67.2,61.4z M36.8,40.4
		c-0.5-1.3-1.2-2.9-2.1-4.2l2.5-1c-1.3,0-2.5,0-3.7,0l-1.4-4.1c9.5,0.4,22.7-0.8,29.6-2.8l2.2,3.9c-1.7,0.4-3.6,0.8-5.7,1.2l4.5,1.6
		c-0.8,1.6-2,3.6-3.2,5.5h6.8v8.5H61v-4.2H35.5v4.2h-5v-8.5H36.8z M46.2,40.4c-0.4-1.5-1.1-3.2-2.1-4.8l2.3-0.8
		c-2.4,0.2-4.8,0.3-7.1,0.4c1,1.6,1.8,3.2,2.2,4.6l-1.7,0.6H46.2z M48.3,55.5c1.8-1.3,3.3-2.8,4.4-4.6h-9.5
		C44.5,52.7,46.3,54.2,48.3,55.5z M54.1,40.4c1.4-2.4,2.7-5,3.5-6.9c-2.8,0.4-5.8,0.8-8.9,1.1c1,1.7,1.7,3.5,2.1,4.8l-2.7,1H54.1z"
		/>
	<path class="st2" d="M84,34.9v4.1H70.1v-4.1H84z M75.8,51.8h7.3v12.6h-7.3v1.5h-4.6V51.8h2.4H75.8z M82.7,40.7v3.9H71.7v-3.9H82.7z
		 M82.7,46.3v3.9H71.7v-3.9H82.7z M82.4,29.4v3.9H72.1v-3.9H82.4z M78.6,60.1v-4h-2.7v4H78.6z M86.2,56.1v-10h7.3v-1.5h-9.1v-3.5
		h4.3v-1.4h-3.1v-3.5h3.1v-1.4h-4v-3.6h4v-2.9h5v2.9h4.5v-2.9h5v2.9h4.1v3.6h-4.1v1.4h3.1v3.5h-3.1v1.4h4.4v3.5h-9.2v1.5h2.4h2.2
		h3.1v10h1.8v3.9H106v2c0,2.2-0.6,3.4-2.5,3.8c-1,0.2-3.2,0.2-4.9,0.2l-0.8-4.2c0.8,0,2,0.1,2.4,0c0.4,0,0.5-0.2,0.5-0.6v-1.2h-9.5
		V66h-5.1v-5.9H84v-3.9H86.2z M93.5,51.2v-1.5h-2.2v1.5H93.5z M93.5,56.1v-1.5h-2.2v1.5H93.5z M98.2,36.1v-1.4h-4.5v1.4H98.2z
		 M98.2,41.1v-1.4h-4.5v1.4H98.2z M100.8,51.2v-1.5h-2.4v1.5H100.8z M100.8,56.1v-1.5h-2.4v1.5H100.8z"/>
	<path class="st2" d="M125.2,64.6v1.3h-5.3V52.7c-1.8,0.6-3.7,1.3-5.6,1.9c-1.2-1.4-2.3-2.8-3.5-4.1c6.1-1.6,11.5-3.5,16.2-6.1
		h-15.8v-4.5h14.2v-3.1H116v-4.5h9.5v-4h5.3v4h7.9v3.3c1.6-1.6,3-3.4,4.3-5.3l4.3,2.3c-1.8,2.7-3.9,5.1-6.2,7.3h7.9v4.5h-13.2
		c-1,0.8-2.1,1.5-3.3,2.3h5.3h2.7h2.7V66h-5.4v-1.3L125.2,64.6z M137.7,53.5v-2.3h-12.6v2.3H137.7z M137.7,60.1v-2.4h-12.6v2.4
		H137.7z M134,39.9c1.2-1,2.5-2.1,3.6-3.1h-6.8v3.1H134z"/>
	<path class="st2" d="M171.4,60.5l-3.6,3.5c-1-0.7-2.1-1.4-3.3-2.1c-2.1,1.7-4.9,3-8.7,4l-3.1-3.8c3-0.6,5.3-1.5,7-2.5
		c-0.5-0.2-1.1-0.5-1.7-0.7l-0.2,0.4l-4.6-1.6c0.8-1.3,1.7-3.2,2.6-5.2h-3.3v-4.1h5.2c0.3-0.8,0.6-1.5,0.9-2.2l1.3,0.1v-2.7
		c-1.6,1.6-3.3,3-5,4.1l-2.9-3.7c2.1-1,4.6-2.7,6.4-4.4h-5.9v-4.1h2.6c-0.2-1.5-0.8-3.1-1.8-4.8l3.7-1.7c1.2,1.8,2,3.5,2.3,5.1
		l-3.7,1.4h4.3v-7.2h4.9v7.2h3.5l-2.9-1.4c1-1.8,1.9-3.7,2.4-5.1l4.3,1.8c-0.8,1.4-1.8,3.1-3,4.7h3.1v4.1h-6.2
		c1.8,1.1,3.7,2.3,4.8,3.2l-2.7,3.6c-0.8-0.9-2.1-2.1-3.3-3.2v3.1h-4.7l3.7,0.4c-0.2,0.5-0.4,1.1-0.7,1.7h9.3v4.1h-2.7
		c-0.4,2.2-1.1,4.1-2.2,5.9C169,59.1,170.3,59.7,171.4,60.5z M163.3,56.3c0.7-1.1,1.2-2.4,1.5-3.8h-3.5c-0.4,0.9-0.8,1.7-1.2,2.6
		C161.2,55.5,162.3,55.9,163.3,56.3z M190.9,61.9l-3.5,4.1c-2.5-1.6-4.7-3.6-6.5-6.1c-1.9,2.3-4.1,4.2-6.8,6.1l-3.7-3.8
		c3.3-2.1,5.8-4.3,7.8-6.9c-1.2-2.6-2.3-5.5-3.1-8.8c-0.4,0.6-0.8,1.3-1.2,1.9l-3.7-3.3c3.3-5,5.1-10.6,5.8-16.9
		c1.8,0.3,3.4,0.5,5,0.8c-0.3,1.9-0.6,3.7-1.1,5.5h10.5v4.8H188c-0.4,6.5-1.7,11.8-4.2,16.3C185.7,58.4,188.1,60.5,190.9,61.9z
		 M180.9,50.2c1.2-3.1,1.8-6.6,1.9-10.8h-4.4l0,0.1C178.9,43.6,179.7,47.1,180.9,50.2z"/>
</g>
<g>
	<linearGradient id="SVGID_1_" gradientUnits="userSpaceOnUse" x1="211.021" y1="28.4146" x2="211.021" y2="65.875">
		<stop  offset="0" style="stop-color:#FFFFFF"/>
		<stop  offset="1" style="stop-color:#FFFF35"/>
	</linearGradient>
	<path class="st3" d="M225.1,28.4v37.5h-6.4l-14.6-23.2v23.2h-7.2V28.4h6.3l14.7,23.5V28.4H225.1z"/>
	<linearGradient id="SVGID_2_" gradientUnits="userSpaceOnUse" x1="241.6074" y1="38.2412" x2="241.6074" y2="66.3633">
		<stop  offset="0" style="stop-color:#FFFFFF"/>
		<stop  offset="1" style="stop-color:#FFFF35"/>
	</linearGradient>
	<path class="st4" d="M253.3,53.9c0,7.4-3.5,12.5-11.7,12.5c-7.9,0-11.7-4.9-11.7-12.5v-3.3c0-8.1,4.3-12.4,11.7-12.4
		c7.5,0,11.7,4.2,11.7,12.4V53.9z M246.4,53.7v-2.8c0-4.3-1.4-6.7-4.8-6.7c-3.4,0-4.8,2.4-4.8,6.7v2.8c0,3.9,1,6.8,4.8,6.8
		C245.4,60.5,246.4,57.6,246.4,53.7z"/>
	<linearGradient id="SVGID_3_" gradientUnits="userSpaceOnUse" x1="261.4512" y1="57.4053" x2="261.4512" y2="65.875">
		<stop  offset="0" style="stop-color:#FFFFFF"/>
		<stop  offset="1" style="stop-color:#FFFF35"/>
	</linearGradient>
	<path class="st5" d="M265.7,65.9h-8.5v-8.5h8.5V65.9z"/>
	<linearGradient id="SVGID_4_" gradientUnits="userSpaceOnUse" x1="273.6929" y1="28.4146" x2="273.6929" y2="65.875">
		<stop  offset="0" style="stop-color:#FFFFFF"/>
		<stop  offset="1" style="stop-color:#FFFF35"/>
	</linearGradient>
	<path class="st6" d="M280.2,65.9h-7.6V36.3l-5.4,3.5v-7.3l6.1-4.1h6.8V65.9z"/>
</g>
</svg>
